<svg width="620" height="119" viewBox="0 0 620 119" fill="none" xmlns="http://www.w3.org/2000/svg">
<path d="M57.8008 62.6105H18.8008V95.9605H9.55079V23.6605H18.8008V54.4605H57.8008V23.6605H67.0508V95.9605H57.8008V62.6105ZM298.955 59.9605C298.955 52.0272 300.222 45.2772 302.755 39.7105C305.322 34.1439 308.955 29.9105 313.655 27.0105C318.355 24.1105 323.905 22.6605 330.305 22.6605C336.739 22.6605 342.289 24.1105 346.955 27.0105C351.655 29.9105 355.255 34.1439 357.755 39.7105C360.289 45.2772 361.555 52.0272 361.555 59.9605C361.555 67.4272 360.439 73.8439 358.205 79.2105C356.005 84.5439 352.422 88.8105 347.455 92.0105C348.689 94.7439 350.505 96.7605 352.905 98.0605C355.339 99.3939 358.039 100.111 361.005 100.211V108.061C358.639 108.061 356.139 107.761 353.505 107.161C350.872 106.594 348.289 105.444 345.755 103.711C343.255 102.011 340.955 99.4605 338.855 96.0605C337.189 96.3605 335.689 96.5772 334.355 96.7105C333.022 96.8772 331.672 96.9605 330.305 96.9605C323.939 96.9605 318.405 95.5439 313.705 92.7105C309.005 89.8439 305.372 85.6605 302.805 80.1605C300.239 74.6605 298.955 67.9272 298.955 59.9605ZM309.205 60.1605C309.205 70.0939 311.039 77.3772 314.705 82.0105C318.405 86.6105 323.605 88.9105 330.305 88.9105C337.039 88.9105 342.239 86.5939 345.905 81.9605C349.605 77.3272 351.455 70.0105 351.455 60.0105C351.455 50.1105 349.622 42.7605 345.955 37.9605C342.322 33.1272 337.105 30.7105 330.305 30.7105C323.539 30.7105 318.322 33.1272 314.655 37.9605C311.022 42.7939 309.205 50.1939 309.205 60.1605Z" fill="#E50025"/>
<path d="M98.2203 96.9605C94.887 96.9605 91.937 96.3772 89.3703 95.2105C86.8037 94.0105 84.787 92.2939 83.3203 90.0605C81.887 87.8272 81.1703 85.1272 81.1703 81.9605C81.1703 76.2272 83.1703 71.9605 87.1703 69.1605C91.1703 66.3605 97.587 64.8605 106.42 64.6605L115.67 64.4105V60.3605C115.67 57.1939 114.72 54.6939 112.82 52.8605C110.92 50.9939 107.97 50.0605 103.97 50.0605C101.004 50.0939 98.387 50.7939 96.1203 52.1605C93.887 53.5272 92.437 55.7605 91.7703 58.8605H83.6203C83.8203 55.4939 84.7703 52.6605 86.4703 50.3605C88.1703 48.0272 90.537 46.2605 93.5703 45.0605C96.637 43.8605 100.254 43.2605 104.42 43.2605C108.92 43.2605 112.654 43.8939 115.62 45.1605C118.62 46.4272 120.854 48.2939 122.32 50.7605C123.82 53.2272 124.57 56.2605 124.57 59.8605V95.9605H116.67L116.02 86.2605C114.02 90.2939 111.47 93.0939 108.37 94.6605C105.304 96.1939 101.92 96.9605 98.2203 96.9605ZM101.02 90.3105C102.754 90.3105 104.47 89.9939 106.17 89.3605C107.904 88.7272 109.487 87.8772 110.92 86.8105C112.354 85.7105 113.487 84.4939 114.32 83.1605C115.187 81.7939 115.637 80.3939 115.67 78.9605V70.1105L107.97 70.2605C104.037 70.3272 100.737 70.7272 98.0703 71.4605C95.437 72.1939 93.4537 73.3439 92.1203 74.9105C90.8203 76.4772 90.1703 78.5272 90.1703 81.0605C90.1703 83.9605 91.1703 86.2272 93.1703 87.8605C95.2037 89.4939 97.8203 90.3105 101.02 90.3105ZM179.105 44.2605L160.455 95.9605H152.055L133.355 44.2605H142.055L155.805 84.3605H156.655L170.455 44.2605H179.105ZM193.743 72.2605C193.743 75.5272 194.276 78.4939 195.343 81.1605C196.443 83.7939 198.093 85.8939 200.293 87.4605C202.526 89.0272 205.31 89.8105 208.643 89.8105C211.943 89.8105 214.776 89.0439 217.143 87.5105C219.543 85.9772 221.076 83.7605 221.743 80.8605H230.493C229.86 84.3605 228.46 87.3105 226.293 89.7105C224.126 92.1105 221.51 93.9272 218.443 95.1605C215.376 96.3605 212.176 96.9605 208.843 96.9605C204.01 96.9605 199.76 95.9105 196.093 93.8105C192.426 91.7105 189.56 88.6939 187.493 84.7605C185.426 80.8272 184.393 76.1105 184.393 70.6105C184.393 65.1772 185.326 60.4105 187.193 56.3105C189.06 52.2105 191.76 49.0105 195.293 46.7105C198.86 44.4105 203.143 43.2605 208.143 43.2605C213.01 43.2605 217.126 44.3105 220.493 46.4105C223.86 48.5105 226.41 51.4772 228.143 55.3105C229.91 59.1105 230.793 63.6272 230.793 68.8605V72.2605H193.743ZM193.793 66.0105H221.893C221.893 63.0439 221.393 60.3772 220.393 58.0105C219.393 55.6105 217.86 53.7272 215.793 52.3605C213.76 50.9605 211.193 50.2605 208.093 50.2605C204.86 50.2605 202.176 51.0439 200.043 52.6105C197.943 54.1439 196.36 56.1272 195.293 58.5605C194.26 60.9605 193.76 63.4439 193.793 66.0105ZM243.491 95.9605V44.2605H252.441V51.7605C253.274 50.3272 254.424 48.9772 255.891 47.7105C257.391 46.4439 259.191 45.4272 261.291 44.6605C263.424 43.8939 265.874 43.5105 268.641 43.5105C271.907 43.5105 274.907 44.1605 277.641 45.4605C280.407 46.7605 282.607 48.7939 284.241 51.5605C285.907 54.2939 286.741 57.8272 286.741 62.1605V95.9605H277.491V63.0605C277.491 59.0272 276.424 56.0439 274.291 54.1105C272.191 52.1439 269.457 51.1605 266.091 51.1605C263.757 51.1605 261.574 51.5439 259.541 52.3105C257.507 53.0439 255.857 54.1772 254.591 55.7105C253.324 57.2105 252.691 59.1105 252.691 61.4105V95.9605H243.491ZM394.913 96.9605C392.213 96.9272 389.663 96.5439 387.263 95.8105C384.896 95.0439 382.796 93.9272 380.963 92.4605C379.129 90.9939 377.679 89.1772 376.613 87.0105C375.579 84.8105 375.063 82.2605 375.063 79.3605V44.2605H384.313V78.4105C384.313 81.7772 385.346 84.5105 387.413 86.6105C389.513 88.7105 392.663 89.7605 396.863 89.7605C400.663 89.7605 403.713 88.7772 406.013 86.8105C408.346 84.8105 409.513 81.8439 409.513 77.9105V44.2605H418.713V95.9605H411.363L410.413 86.0605C409.779 88.6605 408.696 90.7605 407.163 92.3605C405.663 93.9605 403.846 95.1439 401.713 95.9105C399.613 96.6439 397.346 96.9939 394.913 96.9605ZM443.725 44.2605V95.9605H434.775V44.2605H443.725ZM443.925 23.7105V33.3105H434.475V23.7105H443.925ZM460.58 95.9605V44.2605H469.53V51.7605C470.364 50.3272 471.514 48.9772 472.98 47.7105C474.48 46.4439 476.28 45.4272 478.38 44.6605C480.514 43.8939 482.964 43.5105 485.73 43.5105C488.997 43.5105 491.997 44.1605 494.73 45.4605C497.497 46.7605 499.697 48.7939 501.33 51.5605C502.997 54.2939 503.83 57.8272 503.83 62.1605V95.9605H494.58V63.0605C494.58 59.0272 493.514 56.0439 491.38 54.1105C489.28 52.1439 486.547 51.1605 483.18 51.1605C480.847 51.1605 478.664 51.5439 476.63 52.3105C474.597 53.0439 472.947 54.1772 471.68 55.7105C470.414 57.2105 469.78 59.1105 469.78 61.4105V95.9605H460.58ZM538.845 96.9605C534.079 96.9605 529.912 95.9439 526.345 93.9105C522.779 91.8439 520.012 88.8272 518.045 84.8605C516.079 80.8939 515.095 76.0439 515.095 70.3105C515.095 64.9105 516.012 60.1772 517.845 56.1105C519.679 52.0439 522.362 48.8939 525.895 46.6605C529.462 44.3939 533.779 43.2605 538.845 43.2605C543.612 43.2605 547.745 44.3105 551.245 46.4105C554.779 48.4772 557.512 51.5272 559.445 55.5605C561.379 59.5939 562.345 64.5105 562.345 70.3105C562.345 75.5772 561.445 80.2105 559.645 84.2105C557.879 88.2105 555.245 91.3439 551.745 93.6105C548.279 95.8439 543.979 96.9605 538.845 96.9605ZM538.845 89.6605C541.945 89.6605 544.562 88.8772 546.695 87.3105C548.829 85.7439 550.445 83.4939 551.545 80.5605C552.645 77.6272 553.195 74.1439 553.195 70.1105C553.195 66.4105 552.712 63.0939 551.745 60.1605C550.779 57.1939 549.229 54.8439 547.095 53.1105C544.995 51.3772 542.245 50.5105 538.845 50.5105C535.712 50.5105 533.062 51.2939 530.895 52.8605C528.729 54.3939 527.079 56.6272 525.945 59.5605C524.845 62.4939 524.295 66.0105 524.295 70.1105C524.295 73.7439 524.795 77.0439 525.795 80.0105C526.795 82.9772 528.362 85.3272 530.495 87.0605C532.629 88.7939 535.412 89.6605 538.845 89.6605ZM616.532 95.9605H606.482L591.432 75.7105L576.482 95.9605H566.332L586.282 69.1105L567.932 44.2605H578.032L591.432 62.4105L604.882 44.2605H614.982L596.582 69.1105L616.532 95.9605Z" fill="black"/>
<rect x="434.489" y="23.5901" width="9.46707" height="9.67447" fill="#E50025"/>
</svg>
